<svg data-v-0dd9719b="" version="1.0" xmlns="http://www.w3.org/2000/svg" xmlns:xlink="http://www.w3.org/1999/xlink" width="100%" height="100%" viewBox="0 0 340.000000 250.000000" preserveAspectRatio="xMidYMid meet" color-interpolation-filters="sRGB" style="margin: auto;"> <rect data-v-0dd9719b="" x="0" y="0" width="100%" height="100%" fill="#fff" fill-opacity="1" class="background"></rect> <rect data-v-0dd9719b="" x="0" y="0" width="100%" height="100%" fill="url(#watermark)" fill-opacity="1" class="watermarklayer"></rect> <g data-v-0dd9719b="" fill="#333" class="icon-text-wrapper icon-svg-group iconsvg" transform="translate(48.67500305175781,98.93570709228516)"><g class="iconsvg-imagesvg" transform="translate(0,0)"><g><rect fill="#333" fill-opacity="0" stroke-width="2" x="0" y="0" width="60" height="52.12858384013901" class="image-rect"></rect> <svg x="0" y="0" width="60" height="52.12858384013901" filtersec="colorsb5062668092" class="image-svg-svg primary" style="overflow: visible;"><svg xmlns="http://www.w3.org/2000/svg" viewBox="0 0 115.0999984741211 100"><g fill-rule="evenodd"><path d="M24 71.92h12.48l29.16-50.17 37 64.18h12.46L65.67.28C55.46 17.84 51.25 25.09 24 71.92z" fill="#703fec"></path><path d="M82.68 86.07L76.5 75.29l-57.9-.17C57.91 7 46.27 27.19 55.73 10.8L49.54 0 0 85.83z" fill="#00b9e4"></path><path d="M65.67 28.12L59.45 38.9l28.86 50.34h-74L8.07 100h98.81z" fill="#92d400"></path></g></svg></svg> <!----></g></g> <g transform="translate(67,2.8130416870117188)"><g data-gra="path-name" fill-rule="" class="tp-name iconsvg-namesvg" transform="translate(0,0)"><g transform="scale(1)"><g><path d="M25.56 2.47L25.56 2.47Q22.87 2.47 22.87 1.15L22.87 1.15Q22.87 0.87 23.05 0.73L23.05 0.73Q23.78 0.17 25.21 0.17L25.21 0.17 25.38 0.17Q27.4 0.17 27.52 0.07 27.64-0.03 27.64-15.95L27.64-15.95Q27.64-16.99 27.44-16.99L27.44-16.99 8.63-16.99Q8.43-16.99 8.43-15.95L8.43-15.95 8.43 1.08Q8.43 2.47 6.2 2.47L6.2 2.47Q3.97 2.47 3.97 1.08L3.97 1.08 3.97-17.51Q3.97-18.17 4.67-18.87 5.36-19.57 6.86-19.57L6.86-19.57 15.18-19.57Q15.21-20.05 15.32-20.85L15.32-20.85Q15.49-22.14 15.6-23.15L15.6-23.15 4.46-23.15Q2.33-23.15 2.33-24.48L2.33-24.48Q2.33-25.76 4.46-25.76L4.46-25.76 15.81-25.76Q15.95-26.46 15.95-27.44L15.95-27.44Q16.05-28.86 18-28.86L18-28.86Q20.61-28.86 20.61-27.47L20.61-27.47 20.4-25.76 31.61-25.76Q33.74-25.76 33.74-24.48L33.74-24.48Q33.74-23.15 31.61-23.15L31.61-23.15 20.05-23.15Q19.85-21.62 19.46-19.57L19.46-19.57 29.28-19.57Q30.78-19.57 31.47-18.87 32.17-18.17 32.17-17.51L32.17-17.51 32.17-0.8Q32.17 0.24 31.84 0.85 31.51 1.46 30.39 1.91L30.39 1.91Q29.11 2.4 25.56 2.47ZM17.93 1.71L17.93 1.71Q15.77 1.71 15.77 0.38L15.77 0.38 15.77-4 10.76-4Q8.84-4 8.84-5.12L8.84-5.12Q8.84-6.2 10.76-6.2L10.76-6.2 15.77-6.2 15.77-9.61 11.45-9.61Q9.57-9.61 9.57-10.69L9.57-10.69Q9.57-11.73 11.45-11.73L11.45-11.73 12.81-11.73Q12.32-13.79 11.42-15.6L11.42-15.6Q11.56-15.6 12.12-15.74 12.67-15.88 13.13-15.88L13.13-15.88Q13.96-15.88 14.73-15.41 15.49-14.94 15.81-14.24L15.81-14.24Q16.05-13.75 16.05-13.4L16.05-13.4Q16.05-12.6 14.8-12.26L14.8-12.26 13.72-11.73 19.25-11.73Q19.88-13.23 20.51-14.97L20.51-14.97Q20.85-16.15 22.21-16.15L22.21-16.15Q22.67-16.15 23.22-16.02L23.22-16.02Q24.55-15.7 24.55-15.04L24.55-15.04Q24.55-14.9 24.48-14.73L24.48-14.73Q23.99-13.68 23.15-11.73L23.15-11.73 24.72-11.73Q26.6-11.73 26.6-10.69L26.6-10.69Q26.6-9.61 24.72-9.61L24.72-9.61 20.09-9.61 20.09-6.2 25.35-6.2Q27.26-6.2 27.26-5.12L27.26-5.12Q27.26-4 25.35-4L25.35-4 20.09-4 20.09 0.38Q20.09 1.71 17.93 1.71ZM49.16 2.51L49.16 2.51Q46.48 2.51 45.92 1.01L45.92 1.01 45.89 0.8Q45.89 0.42 46.31 0.14L46.31 0.14Q47.18-0.42 48.74-0.42L48.74-0.42 48.92-0.42Q51.56-0.42 51.67-0.5 51.77-0.59 51.77-13.26L51.77-13.26 41.01-13.26Q38.85-13.26 38.85-14.59L38.85-14.59Q38.85-15.91 41.01-15.91L41.01-15.91 67.33-15.91Q69.49-15.91 69.49-14.59L69.49-14.59Q69.49-13.26 67.33-13.26L67.33-13.26 56.37-13.26 56.37-1.25Q56.37 0.03 56.05 0.63L56.05 0.63Q55.64 1.43 54.31 1.91L54.31 1.91Q52.78 2.44 49.16 2.51ZM66.5-18.42L66.5-18.42Q64.2-18.42 64.2-19.88L64.2-19.88 64.2-21.69Q64.2-22.74 63.99-22.74L63.99-22.74 44.46-22.74Q44.25-22.74 44.25-21.69L44.25-21.69 44.25-19.81Q44.25-18.42 42.02-18.42L42.02-18.42Q39.79-18.42 39.79-19.81L39.79-19.81 39.79-23.43Q39.79-24.09 40.49-24.79 41.19-25.49 42.68-25.49L42.68-25.49 51.77-25.49 51.77-27.57Q51.77-29.04 54.07-29.04L54.07-29.04Q56.37-29.04 56.37-27.57L56.37-27.57 56.37-25.49 65.91-25.49Q67.4-25.49 68.1-24.79 68.8-24.09 68.8-23.43L68.8-23.43 68.8-19.88Q68.8-18.42 66.5-18.42ZM101.52 1.64L101.52 1.64 95.57 1.64Q90.59 1.64 90.35-1.04L90.35-1.04Q89.51-0.52 87.84 0.38L87.84 0.38Q86.87 0.84 86.1 0.84L86.1 0.84Q84.95 0.84 84.15-0.14L84.15-0.14Q83.77-0.59 83.77-0.87L83.77-0.87Q83.77-1.15 84.95-1.71L84.95-1.71Q87.63-3.03 90.24-5.01L90.24-5.01 90.24-18.38 88.15-18.38Q87.18-11.59 85.13-7.28L85.13-7.28Q82.9-2.4 78.79 0.77L78.79 0.77Q77.64 1.64 76.63 1.64L76.63 1.64Q75.55 1.64 74.65 0.63L74.65 0.63Q74.19 0.14 74.19-0.07L74.19-0.07Q74.19-0.52 75.31-1.32L75.31-1.32Q78.82-3.93 80.84-8.15L80.84-8.15Q82.69-12.12 83.56-18.38L83.56-18.38 76.25-18.38Q74.12-18.38 74.12-19.71L74.12-19.71Q74.12-20.99 76.25-20.99L76.25-20.99 83.87-20.99Q84.15-23.64 84.26-27.4L84.26-27.4Q84.32-28.93 86.41-28.93L86.41-28.93Q88.89-28.93 88.89-27.47L88.89-27.47Q88.89-25.56 88.4-20.99L88.4-20.99 103.79-20.99Q105.91-20.99 105.91-19.71L105.91-19.71Q105.91-18.38 103.79-18.38L103.79-18.38 94.74-18.38 94.74-8.95Q96.89-10.97 99.16-14.83L99.16-14.83Q99.78-16.02 100.97-16.02L100.97-16.02Q101.66-16.02 102.53-15.63L102.53-15.63Q103.54-15.18 103.54-14.62L103.54-14.62Q103.54-14.45 103.44-14.24L103.44-14.24Q100.03-8.67 94.74-4.25L94.74-4.25 94.74-2.75Q94.74-1.36 95-1.13 95.26-0.91 95.95-0.91L95.95-0.91 101.28-0.91Q101.63-0.91 101.91-1.64L101.91-1.64Q102.08-2.82 102.53-3.41L102.53-3.41Q103.13-4.32 104.07-4.32L104.07-4.32Q104.62-4.32 105.28-4L105.28-4Q106.29-3.59 106.29-2.26L106.29-2.26 106.26-1.74Q105.95-0.03 104.9 0.8 103.86 1.64 101.52 1.64ZM99.16-22.28L99.16-22.28Q98.32-22.28 97.52-23.08L97.52-23.08Q95.64-24.72 93.59-26.36L93.59-26.36Q93.27-26.6 93.27-26.88L93.27-26.88Q93.27-27.16 93.59-27.44L93.59-27.44Q94.42-28.1 95.26-28.1L95.26-28.1Q95.99-28.1 96.75-27.61L96.75-27.61Q99.09-25.9 101.18-24.2L101.18-24.2 101.56-23.85Q101.52-23.64 101-23.15L101-23.15Q100.06-22.28 99.16-22.28ZM112.42 2.23L112.42 2.23Q111.55 2.23 110.54 1.39L110.54 1.39Q109.98 0.91 109.98 0.35L109.98 0.35Q109.98 0 110.23-0.38L110.23-0.38Q111.86-3.52 112.53-7.97L112.53-7.97Q112.94-11 112.94-15.35L112.94-15.35 112.94-22.46Q112.94-23.12 113.64-23.81 114.34-24.51 115.83-24.51L115.83-24.51 124.61-24.51 124.61-27.57Q124.61-29 126.91-29L126.91-29Q129.17-29 129.17-27.57L129.17-27.57 129.17-24.51 139.44-24.51Q141.63-24.51 141.63-23.15L141.63-23.15Q141.63-21.79 139.44-21.79L139.44-21.79 117.61-21.79Q117.4-21.79 117.4-20.75L117.4-20.75 117.4-15.32Q117.4-4.77 114.34 0.87L114.34 0.87Q113.5 2.23 112.42 2.23ZM174.57 1.98L174.57 1.98Q173.38 1.98 172.62 1.08L172.62 1.08Q170.5-1.46 166-5.74L166-5.74Q165.69-6.02 165.69-6.3L165.69-6.3Q165.69-6.79 166.53-7.22 167.36-7.66 168.13-7.66L168.13-7.66Q169.73-7.66 177.08-0.03L177.08-0.03Q177.49 0.42 177.49 0.49L177.49 0.49Q177.35 0.87 176.38 1.43 175.4 1.98 174.57 1.98ZM149.15 1.95L149.15 1.95Q148 1.95 147.1 1.22L147.1 1.22Q146.44 0.63 146.44 0.35L146.44 0.35Q146.44 0.07 147.38-0.63L147.38-0.63Q151.17-3.55 153.4-6.62L153.4-6.62Q154.1-7.69 155.42-7.69L155.42-7.69Q156.12-7.69 156.92-7.42L156.92-7.42Q158.17-6.96 158.17-6.34L158.17-6.34Q158.17-5.64 154.55-1.91L154.55-1.91Q150.68 1.95 149.15 1.95ZM175.82-9.96L175.82-9.96 148.14-9.96Q145.98-9.96 145.98-11.32L145.98-11.32Q145.98-12.64 148.14-12.64L148.14-12.64 175.82-12.64Q177.98-12.64 177.98-11.32L177.98-11.32Q177.98-9.96 175.82-9.96ZM169.21-14.24L169.21-14.24Q168.62-14.24 167.92-14.48L167.92-14.48Q166.46-14.94 166.46-15.35L166.46-15.35Q166.46-15.42 166.7-15.84L166.7-15.84Q169.73-20.47 172.06-26.04L172.06-26.04Q172.65-27.44 174.12-27.44L174.12-27.44Q174.74-27.44 175.51-27.19L175.51-27.19Q177.04-26.77 177.04-25.97L177.04-25.97Q177.04-25.69 176.9-25.42L176.9-25.42Q171.47-14.24 169.21-14.24ZM152.36-15.6L152.36-15.6Q150.89-15.6 150.55-16.82L150.55-16.82Q149.15-20.37 146.89-24.02L146.89-24.02Q146.75-24.23 146.75-24.44L146.75-24.44Q146.75-24.96 147.83-25.42L147.83-25.42Q148.6-25.73 149.26-25.73L149.26-25.73Q150.41-25.73 151.1-24.72L151.1-24.72Q153.57-20.92 155.11-17.3L155.11-17.3 155.14-16.99Q155.14-16.54 153.99-16.02L153.99-16.02Q153.09-15.6 152.36-15.6ZM161.41-17.93L161.41-17.93Q159.81-17.93 159.56-19.22L159.56-19.22Q158.69-22.84 156.88-26.7L156.88-26.7Q156.78-26.91 156.78-27.09L156.78-27.09Q156.78-27.71 158.03-28.13L158.03-28.13Q158.73-28.38 159.32-28.38L159.32-28.38Q160.57-28.38 161.2-27.23L161.2-27.23Q163.25-22.98 164.19-19.53L164.19-19.53 164.23-19.36Q164.23-19.11 164.05-18.84 163.88-18.56 162.84-18.21L162.84-18.21Q162.03-17.93 161.41-17.93Z" transform="translate(-2.3299999237060547, 29.040000915527344)"></path></g> <!----> <!----> <!----> <!----> <!----> <!----> <!----></g></g> <g data-gra="path-slogan" fill-rule="" class="tp-slogan iconsvg-slogansvg" fill="#333" transform="translate(5.954994201660156,37.55000114440918)"><rect width="0"></rect> <rect x="166.74000549316406" width="0"></rect> <g transform="translate(0,0)"><g transform="scale(1)"><path d="M2.30-8.58L6.61-1.64L6.61-8.58L7.73-8.58L7.73 0L6.42 0L2.06-6.94L2.02-6.94L2.02 0L0.89 0L0.89-8.58L2.30-8.58ZM15.19 0L14.34-2.48L10.88-2.48L9.98 0L8.81 0L12.05-8.58L13.36-8.58L16.45 0L15.19 0ZM12.61-7.31L11.25-3.52L13.92-3.52L12.66-7.31L12.61-7.31ZM18.89-8.58L23.20-1.64L23.20-8.58L24.33-8.58L24.33 0L23.02 0L18.66-6.94L18.61-6.94L18.61 0L17.48 0L17.48-8.58L18.89-8.58ZM27.52-8.58L31.83-1.64L31.83-8.58L32.95-8.58L32.95 0L31.64 0L27.28-6.94L27.23-6.94L27.23 0L26.11 0L26.11-8.58L27.52-8.58ZM34.92-8.58L36.09-8.58L36.09 0L34.92 0L34.92-8.58ZM39.47-8.58L43.78-1.64L43.78-8.58L44.91-8.58L44.91 0L43.59 0L39.23-6.94L39.19-6.94L39.19 0L38.06 0L38.06-8.58L39.47-8.58ZM53.11-3.61L50.48-3.61L50.48-4.59L54.23-4.59L54.23 0L53.48 0L53.20-1.08Q52.22 0.09 50.39 0.14L50.39 0.14Q48.66 0.14 47.72-0.75L47.72-0.75Q46.31-2.06 46.36-4.36L46.36-4.36Q46.69-8.63 50.44-8.81L50.44-8.81Q53.63-8.63 54.09-6L54.09-6L52.97-6Q52.50-7.78 50.39-7.83L50.39-7.83Q47.72-7.64 47.58-4.31L47.58-4.31Q47.58-0.75 50.44-0.75L50.44-0.75Q51.47-0.75 52.22-1.31L52.22-1.31Q53.16-2.06 53.11-3.61L53.11-3.61ZM59.34-8.58L60.52-8.58L60.52-1.03L64.88-1.03L64.88 0L59.34 0L59.34-8.58ZM72.80-4.27L72.80-4.27Q72.61-7.64 69.80-7.83L69.80-7.83Q66.94-7.69 66.80-4.27L66.80-4.27Q66.94-0.94 69.80-0.80L69.80-0.80Q72.61-0.98 72.80-4.27ZM73.97-4.27L73.97-4.27Q73.69 0 69.80 0.14L69.80 0.14Q65.86 0 65.58-4.27L65.58-4.27Q65.81-8.72 69.80-8.81L69.80-8.81Q73.69-8.67 73.97-4.27ZM76.73-8.58L81.05-1.64L81.05-8.58L82.17-8.58L82.17 0L80.86 0L76.50-6.94L76.45-6.94L76.45 0L75.33 0L75.33-8.58L76.73-8.58ZM90.38-3.61L87.75-3.61L87.75-4.59L91.50-4.59L91.50 0L90.75 0L90.47-1.08Q89.48 0.09 87.66 0.14L87.66 0.14Q85.92 0.14 84.98-0.75L84.98-0.75Q83.58-2.06 83.63-4.36L83.63-4.36Q83.95-8.63 87.70-8.81L87.70-8.81Q90.89-8.63 91.36-6L91.36-6L90.23-6Q89.77-7.78 87.66-7.83L87.66-7.83Q84.98-7.64 84.84-4.31L84.84-4.31Q84.84-0.75 87.70-0.75L87.70-0.75Q88.73-0.75 89.48-1.31L89.48-1.31Q90.42-2.06 90.38-3.61L90.38-3.61ZM99.70-3.61L97.08-3.61L97.08-4.59L100.83-4.59L100.83 0L100.08 0L99.80-1.08Q98.81 0.09 96.98 0.14L96.98 0.14Q95.25 0.14 94.31-0.75L94.31-0.75Q92.91-2.06 92.95-4.36L92.95-4.36Q93.28-8.63 97.03-8.81L97.03-8.81Q100.22-8.63 100.69-6L100.69-6L99.56-6Q99.09-7.78 96.98-7.83L96.98-7.83Q94.31-7.64 94.17-4.31L94.17-4.31Q94.17-0.75 97.03-0.75L97.03-0.75Q98.06-0.75 98.81-1.31L98.81-1.31Q99.75-2.06 99.70-3.61L99.70-3.61ZM108.28-3.19L108.28-8.58L109.45-8.58L109.45-3.05Q109.31 0.05 105.94 0.14L105.94 0.14Q102.80 0.05 102.66-2.86L102.66-2.86L102.66-8.58L103.83-8.58L103.83-3.19Q103.88-0.84 105.98-0.80L105.98-0.80Q108.28-0.84 108.28-3.19L108.28-3.19ZM116.91 0L116.06-2.48L112.59-2.48L111.70 0L110.53 0L113.77-8.58L115.08-8.58L118.17 0L116.91 0ZM114.33-7.31L112.97-3.52L115.64-3.52L114.38-7.31L114.33-7.31ZM120.61-8.58L124.92-1.64L124.92-8.58L126.05-8.58L126.05 0L124.73 0L120.38-6.94L120.33-6.94L120.33 0L119.20 0L119.20-8.58L120.61-8.58ZM134.25-3.61L131.63-3.61L131.63-4.59L135.38-4.59L135.38 0L134.63 0L134.34-1.08Q133.36 0.09 131.53 0.14L131.53 0.14Q129.80 0.14 128.86-0.75L128.86-0.75Q127.45-2.06 127.50-4.36L127.50-4.36Q127.83-8.63 131.58-8.81L131.58-8.81Q134.77-8.63 135.23-6L135.23-6L134.11-6Q133.64-7.78 131.53-7.83L131.53-7.83Q128.86-7.64 128.72-4.31L128.72-4.31Q128.72-0.75 131.58-0.75L131.58-0.75Q132.61-0.75 133.36-1.31L133.36-1.31Q134.30-2.06 134.25-3.61L134.25-3.61ZM143.91-8.58L141-4.41L144.05 0L142.59 0L140.25-3.52L137.91 0L136.50 0L139.59-4.41L136.69-8.58L138.14-8.58L140.30-5.30L142.50-8.58L143.91-8.58ZM145.31-8.58L146.48-8.58L146.48 0L145.31 0L145.31-8.58ZM149.86-8.58L154.17-1.64L154.17-8.58L155.30-8.58L155.30 0L153.98 0L149.63-6.94L149.58-6.94L149.58 0L148.45 0L148.45-8.58L149.86-8.58ZM163.50-3.61L160.88-3.61L160.88-4.59L164.63-4.59L164.63 0L163.88 0L163.59-1.08Q162.61 0.09 160.78 0.14L160.78 0.14Q159.05 0.14 158.11-0.75L158.11-0.75Q156.70-2.06 156.75-4.36L156.75-4.36Q157.08-8.63 160.83-8.81L160.83-8.81Q164.02-8.63 164.48-6L164.48-6L163.36-6Q162.89-7.78 160.78-7.83L160.78-7.83Q158.11-7.64 157.97-4.31L157.97-4.31Q157.97-0.75 160.83-0.75L160.83-0.75Q161.86-0.75 162.61-1.31L162.61-1.31Q163.55-2.06 163.50-3.61L163.50-3.61Z" transform="translate(-0.890625, 8.8125)"></path></g></g></g></g></g><defs v-gra="od"></defs></svg>